<svg width="333" height="104" viewBox="0 0 333 104" fill="none" xmlns="http://www.w3.org/2000/svg">
<path d="M67.8421 1.72916C70.9454 -0.576387 75.9772 -0.576386 79.0804 1.72916L96.1986 14.4479C99.3014 16.7535 99.3015 20.4911 96.1986 22.7965L77.9125 36.3815L96.1986 49.9665C99.3017 52.272 99.3018 56.0105 96.1986 58.3161L79.0804 71.0338C75.9772 73.3394 70.9454 73.3394 67.8421 71.0338L49.557 57.4479L31.2718 71.0338C28.1686 73.3392 23.1377 73.3392 20.0345 71.0338L2.91636 58.3161C-0.1869 56.0105 -0.1869 52.272 2.91636 49.9665L21.2005 36.3815L2.91636 22.7965C-0.1869 20.491 -0.1869 16.7525 2.91636 14.4469L20.0345 1.72916C23.1377 -0.576098 28.1686 -0.576054 31.2718 1.72916L49.557 15.3141L67.8421 1.72916Z" fill="white"/>
<path d="M73.6298 18.1745C74.9717 18.1745 76.2042 18.5591 77.0585 19.1921L95.6454 32.9694C96.4727 33.5827 96.6707 34.2011 96.6708 34.6052C96.6708 34.9841 96.4967 35.5517 95.7928 36.1266L95.6454 36.2409L76.6034 50.3542L73.8934 52.362L76.6034 54.3708L95.6454 68.485C96.4726 69.0982 96.6707 69.7167 96.6708 70.1208C96.6708 70.4997 96.4966 71.0674 95.7928 71.6423L95.6454 71.7575L77.0585 85.5329C76.2042 86.166 74.9718 86.5515 73.6298 86.5515C72.2878 86.5514 71.0553 86.166 70.201 85.5329L51.1591 71.4196L49.6708 70.3161L48.1825 71.4196L29.1405 85.5329C28.2863 86.166 27.0537 86.5504 25.7118 86.5505C24.3698 86.5505 23.1373 86.166 22.2831 85.5329L3.69616 71.7575C2.86876 71.1442 2.67077 70.5249 2.67077 70.1208C2.67088 69.7419 2.84531 69.1749 3.5487 68.6003L3.69616 68.485L22.7372 54.3708L25.4471 52.362L22.7372 50.3542L3.69616 36.2409C2.8689 35.6277 2.67077 35.0093 2.67077 34.6052C2.67082 34.201 2.86898 33.5826 3.69616 32.9694L22.2831 19.1921C23.1373 18.5591 24.3699 18.1745 25.7118 18.1745C27.0537 18.1746 28.2863 18.56 29.1405 19.1931V19.1921L48.1825 33.3063L49.6708 34.4089L51.1591 33.3063L70.201 19.1921C71.0552 18.559 72.2877 18.1745 73.6298 18.1745Z" stroke="white" stroke-width="5"/>
<path d="M96.8414 85.8841L78.3692 99.235C75.6702 101.186 71.2943 101.186 68.5954 99.235L49.6708 85.5569L30.7462 99.235C28.0472 101.186 23.6713 101.186 20.9724 99.235L2.50018 85.8841" stroke="white" stroke-width="5" stroke-linecap="round"/>
<path d="M159.639 88.6544C154.067 88.6544 148.931 87.4795 144.231 85.1297C139.599 82.7127 135.738 78.8187 132.65 73.4477L144.835 65.6933C146.648 69.3187 148.931 71.9707 151.684 73.6491C154.436 75.2604 157.357 76.0661 160.445 76.0661C163.735 76.0661 166.32 75.3276 168.199 73.8505C170.079 72.3735 171.019 70.4265 171.019 68.0096C171.019 65.6597 170.281 63.7799 168.804 62.37C167.327 60.9601 165.346 59.8188 162.862 58.946C160.445 58.0732 157.793 57.2675 154.906 56.529C149.468 55.1191 145.138 52.8029 141.915 49.5803C138.692 46.2905 137.081 41.9937 137.081 36.6898C137.081 32.4602 138.122 28.7676 140.203 25.6121C142.284 22.4567 145.171 20.0061 148.864 18.2605C152.623 16.515 156.987 15.6422 161.956 15.6422C167.461 15.6422 172.06 16.7835 175.752 19.0662C179.445 21.3489 182.6 24.5715 185.219 28.734L173.134 36.1863C171.456 33.4337 169.71 31.4195 167.897 30.1439C166.085 28.8683 163.869 28.2305 161.251 28.2305C158.431 28.2305 156.081 28.9354 154.201 30.3453C152.388 31.7552 151.482 33.6351 151.482 35.9849C151.482 38.6033 152.556 40.5167 154.705 41.7252C156.92 42.8665 159.572 43.9071 162.661 44.8471C164.742 45.5184 167.058 46.3241 169.609 47.264C172.228 48.1368 174.745 49.3789 177.162 50.9902C179.579 52.5343 181.56 54.6156 183.104 57.234C184.648 59.8523 185.42 63.1756 185.42 67.2039C185.42 71.4336 184.38 75.1597 182.298 78.3823C180.217 81.6049 177.263 84.1226 173.436 85.9353C169.609 87.748 165.01 88.6544 159.639 88.6544Z" fill="white"/>
<path d="M210.486 87.3452C205.316 87.3452 201.355 86.0696 198.603 83.5184C195.85 80.9671 194.474 76.8382 194.474 71.1315V46.5591H187.122V34.9778H194.474V24.4036L208.069 22.9938V34.9778H219.147V46.5591H208.069V70.4265C208.069 73.6491 209.479 75.2604 212.299 75.2604H217.938L220.036 87.3452H210.486Z" fill="white"/>
<path d="M276.279 87.3452L295.916 61.1615L277.286 34.9778H293.499L304.174 51.5944L315.252 34.9778H331.164L312.533 61.3629L332.171 87.3452H315.655L304.275 70.6279L292.492 87.3452H276.279Z" fill="white"/>
<path d="M268.646 72.5414C268.646 74.6226 268.948 76.1668 269.552 77.1738C270.156 78.1138 275.359 78.8187 276.769 79.2887L270.601 87.7061C267.446 87.4375 263.812 87.748 261.798 86.5395C259.851 85.3311 258.34 83.4512 257.266 80.9C253.775 86.271 248.437 88.9565 241.254 88.9565C235.95 88.9565 231.72 87.4459 228.564 84.4247C225.476 81.3364 223.932 77.3417 223.932 72.4406C223.932 66.5997 226.047 62.135 230.277 59.0467C234.506 55.9583 240.582 54.4142 248.504 54.4142H254.647V51.7958C254.647 48.5061 253.909 46.2234 252.432 44.9478C250.955 43.6722 248.504 43.0344 245.08 43.0344C241.321 43.0344 236.621 43.9743 230.981 45.8541L227.759 36.287C234.405 33.6686 240.985 32.3595 247.497 32.3595C254.748 32.3595 260.086 33.9372 263.51 37.0927C266.934 40.181 268.646 44.8135 268.646 50.9902V72.5414ZM245.181 78.6844C249.209 78.6844 252.365 76.7039 254.647 72.7428V62.5714H249.914C242.193 62.5714 238.333 65.4583 238.333 71.2322C238.333 73.582 238.904 75.4283 240.045 76.771C241.254 78.0466 242.966 78.6844 245.181 78.6844Z" fill="white"/>
</svg>
